<?xml version="1.0" encoding="UTF-8"?>
<svg id="Calque_1" xmlns="http://www.w3.org/2000/svg" version="1.1" viewBox="0 0 206.25 206.25">
  <!-- Generator: Adobe Illustrator 30.2.0, SVG Export Plug-In . SVG Version: 2.1.1 Build 105)  -->
  <defs>
    <style>
      .st0 {
        fill: #0c3098;
      }

      .st1 {
        fill: #4697e5;
      }

      .st2 {
        fill: #11a8ab;
      }
    </style>
  </defs>
  <path class="st0" d="M165.52,167.26c5.69,0,8.36,5.36,8.08,9.44-.33,4.79-4.07,8.16-9.28,8.16l-126.84-.06c-10.75,0-19.09-7.71-20.19-18.2l.09-112.64c0-5.35,6.58-7.88,10.27-7.37,5.96.81,7.92,5.32,7.92,11.02v105.23c-.01,2.13,1.34,4.33,3.65,4.34l126.3.09Z"/>
  <path class="st2" d="M155.14,157.54l-33.33-.03c-1.15,0-2.95-1.55-2.95-2.75v-34.44c0-6.84,3.47-12.57,8.05-16.19,12.66-10,17.99,5.2,31.52-11.37,4.95-6.07,7.55-13.53,7.75-21.35l.46-17.66c.14-5.2,5.59-7.74,9.94-7.27,4.61.5,7.99,4.51,7.94,9.53l-.19,16.53c-.08,7.04-2.08,13.95-4.73,20.35-3.78,9.1-9.98,16.78-18.34,21.93-2.03,1.25-3.45,2.92-3.45,5.43l.07,34.5c0,.95-1.59,2.79-2.73,2.79Z"/>
  <path class="st1" d="M108.81,157.49l-24.38-.06c-.89,0-2.28-1.74-2.27-2.64l.27-27.67c.08-7.8,7.35-13.12,14.29-13.23,7.49-.13,13.35,5.55,14.52,13.22l.04,27.68c0,.84-1.41,2.71-2.48,2.71Z"/>
  <circle class="st2" cx="138.39" cy="76.79" r="15.99"/>
  <path class="st1" d="M71.44,157.5l-19.63-.21-.11-22.06c-.03-6.57,5.53-11.07,11.48-11.15s11.37,4.56,11.44,11.21l.21,18.79c.02,1.63-1.46,3.45-3.39,3.43Z"/>
  <circle class="st1" cx="96.91" cy="94.86" r="12.76"/>
  <circle class="st1" cx="63.35" cy="109.09" r="9.34"/>
  <path class="st2" d="M177.97,31.39c0,1.08-1.63,2.8-2.57,2.71-1.03-.1-2.45-1.51-2.45-2.58l-.03-11.51c0-1.25,1.24-2.94,2.32-2.91,1.45.04,2.73,1.55,2.73,2.88v11.41Z"/>
  <path class="st2" d="M162.69,33c.59.72.08,3.27-.63,3.73-.82.54-2.77.13-3.57-.88l-5.83-7.41c-.54-.69-.09-2.95.56-3.32s2.67-.34,3.23.34l6.24,7.54Z"/>
  <path class="st2" d="M192.16,35.9c-.59.72-2.41,1.16-3.17.91-.89-.29-1.64-2.79-1.03-3.53l6.1-7.48c.54-.66,2.48-1.11,3.22-.78.86.38,1.54,2.73.89,3.52l-6,7.36Z"/>
</svg>